<?xml version="1.0" encoding="UTF-8"?>
<svg width="549px" height="412px" viewBox="0 0 549 412" version="1.1" xmlns="http://www.w3.org/2000/svg" xmlns:xlink="http://www.w3.org/1999/xlink">
    <!-- Generator: Sketch 52.2 (67145) - http://www.bohemiancoding.com/sketch -->
    <title>Artboard</title>
    <desc>Created with Sketch.</desc>
    <g id="Artboard" stroke="none" stroke-width="1" fill="none" fill-rule="evenodd">
        <g id="sass-logo" fill="#CD6799" fill-rule="nonzero">
            <path d="M472.4,237 C453.3,237.1 436.7,241.7 422.8,248.5 C417.7,238.4 412.6,229.4 411.7,222.8 C410.7,215.1 409.5,210.4 410.7,201.2 C411.9,192 417.3,178.9 417.2,177.9 C417.1,176.9 416,172.2 405,172.1 C394,172 384.5,174.2 383.4,177.1 C382.3,180 380.2,186.6 378.8,193.4 C376.9,203.4 356.8,239.1 345.3,257.8 C341.6,250.5 338.4,244.1 337.7,239 C336.7,231.3 335.5,226.6 336.7,217.4 C337.9,208.2 343.3,195.1 343.2,194.1 C343.1,193.1 342,188.4 331,188.3 C320,188.2 310.5,190.4 309.4,193.3 C308.3,196.2 307.1,203 304.8,209.6 C302.5,216.2 275.8,275.8 268.8,291.2 C265.2,299.1 262.1,305.4 259.9,309.7 C259.9,309.7 259.9,309.7 259.9,309.7 C259.9,309.7 259.8,310 259.5,310.5 C257.6,314.2 256.5,316.2 256.5,316.2 C256.5,316.2 256.5,316.2 256.5,316.3 C255,319 253.4,321.5 252.6,321.5 C252,321.5 250.9,314.3 252.8,304.5 C256.8,283.8 266.3,251.6 266.2,250.5 C266.2,249.9 268,244.3 260,241.4 C252.2,238.5 249.4,243.3 248.7,243.3 C248,243.3 247.5,245 247.5,245 C247.5,245 256.2,208.8 230.9,208.8 C215.1,208.8 193.3,226.1 182.5,241.7 C175.7,245.4 161.2,253.3 145.7,261.8 C139.8,265.1 133.7,268.4 128,271.5 C127.6,271.1 127.2,270.6 126.8,270.2 C96.2,237.5 39.6,214.4 42,170.5 C42.9,154.5 48.4,112.5 150.7,61.5 C234.9,20 301.9,31.5 313.5,57 C330.1,93.4 277.6,161 190.6,170.8 C157.4,174.5 140,161.7 135.6,156.9 C131,151.9 130.3,151.6 128.6,152.6 C125.8,154.1 127.6,158.6 128.6,161.2 C131.2,168 141.9,180 160,185.9 C176,191.1 214.9,194 262,175.8 C314.7,155.4 355.9,98.7 343.8,51.2 C331.7,3 251.7,-12.9 176,14 C131,30 82.2,55.2 47.1,88 C5.4,127 -1.2,160.9 1.5,175.1 C11.2,225.5 80.7,258.3 108.5,282.6 C107.1,283.4 105.8,284.1 104.7,284.7 C90.8,291.6 37.8,319.3 24.6,348.6 C9.6,381.8 27,405.6 38.5,408.8 C74.2,418.7 110.9,400.9 130.6,371.5 C150.3,342.1 147.9,303.9 138.8,286.4 C138.7,286.2 138.6,286 138.4,285.8 C142,283.7 145.7,281.5 149.3,279.4 C156.4,275.2 163.4,271.3 169.4,268.1 C166,277.4 163.5,288.5 162.3,304.5 C160.8,323.3 168.5,347.7 178.6,357.3 C183.1,361.5 188.4,361.6 191.8,361.6 C203.6,361.6 208.9,351.8 214.8,340.2 C222,326 228.5,309.5 228.5,309.5 C228.5,309.5 220.4,354.1 242.4,354.1 C250.4,354.1 258.5,343.7 262.1,338.4 C262.1,338.5 262.1,338.5 262.1,338.5 C262.1,338.5 262.3,338.2 262.7,337.5 C263.5,336.2 264,335.4 264,335.4 C264,335.4 264,335.3 264,335.2 C267.2,329.6 274.4,316.9 285.1,295.8 C298.9,268.6 312.2,234.6 312.2,234.6 C312.2,234.6 313.4,242.9 317.5,256.7 C319.9,264.8 324.9,273.7 328.9,282.3 C325.7,286.8 323.7,289.3 323.7,289.3 C323.7,289.3 323.7,289.3 323.8,289.4 C321.2,292.8 318.4,296.5 315.3,300.1 C304.4,313.1 291.4,328 289.6,332.3 C287.5,337.4 288,341.1 292,344.1 C294.9,346.3 300.1,346.6 305.4,346.3 C315.2,345.6 322.1,343.2 325.5,341.7 C330.8,339.8 337,336.9 342.8,332.6 C353.5,324.7 360,313.4 359.4,298.5 C359.1,290.3 356.4,282.1 353.1,274.4 C354.1,273 355,271.6 356,270.2 C372.9,245.5 386,218.4 386,218.4 C386,218.4 387.2,226.7 391.3,240.5 C393.3,247.5 397.4,255.1 401,262.5 C385.1,275.4 375.3,290.4 371.8,300.2 C365.5,318.4 370.4,326.6 379.7,328.5 C383.9,329.4 389.9,327.4 394.3,325.5 C399.9,323.7 406.5,320.6 412.8,316 C423.5,308.1 433.8,297.1 433.2,282.2 C432.9,275.4 431.1,268.7 428.6,262.2 C442.1,256.6 459.5,253.5 481.7,256.1 C529.3,261.7 538.7,291.4 536.9,303.9 C535.1,316.4 525.1,323.2 521.8,325.3 C518.5,327.4 517.4,328.1 517.7,329.6 C518.1,331.8 519.7,331.7 522.5,331.3 C526.4,330.6 547.5,321.2 548.4,298.2 C549.9,268.8 521.9,236.7 472.4,237 Z M105.2,360.8 C89.4,378 67.4,384.5 57.9,379 C47.7,373.1 51.7,347.7 71.1,329.5 C82.9,318.4 98.1,308.1 108.2,301.8 C110.5,300.4 113.9,298.4 118,295.9 C118.7,295.5 119.1,295.3 119.1,295.3 C119.9,294.8 120.7,294.3 121.5,293.8 C128.6,319.8 121.8,342.7 105.2,360.8 Z M220.2,282.6 C214.7,296 203.2,330.3 196.2,328.4 C190.2,326.8 186.5,300.8 195,275.1 C199.3,262.2 208.4,246.8 213.7,240.8 C222.3,231.2 231.8,228 234.1,231.9 C237,237 223.6,274.2 220.2,282.6 Z M315.1,328 C312.8,329.2 310.6,330 309.6,329.4 C308.9,329 310.6,327.4 310.6,327.4 C310.6,327.4 322.5,314.6 327.2,308.8 C329.9,305.4 333.1,301.4 336.5,296.9 C336.5,297.3 336.5,297.8 336.5,298.2 C336.5,313.5 321.7,323.8 315.1,328 Z M388.3,311.3 C386.6,310.1 386.9,306.1 392.6,293.6 C394.8,288.7 400,280.5 408.9,272.6 C409.9,275.8 410.6,278.9 410.5,281.8 C410.4,301.1 396.6,308.3 388.3,311.3 Z" id="Shape"></path>
        </g>
    </g>
</svg>