<?xml version="1.0" encoding="UTF-8"?>
<svg width="500px" height="500px" viewBox="0 0 500 500" version="1.1" xmlns="http://www.w3.org/2000/svg" xmlns:xlink="http://www.w3.org/1999/xlink">
    <!-- Generator: Sketch 52.2 (67145) - http://www.bohemiancoding.com/sketch -->
    <title>Artboard</title>
    <desc>Created with Sketch.</desc>
    <g id="Artboard" stroke="none" stroke-width="1" fill="none" fill-rule="evenodd">
        <path d="M495.3,250 C495.3,217.5 454.6,186.7 392.2,167.6 C406.6,104 400.2,53.4 372,37.2 C365.5,33.4 357.9,31.6 349.6,31.6 L349.6,53.9 C354.2,53.9 357.9,54.8 361,56.5 C374.6,64.3 380.5,94 375.9,132.2 C374.8,141.6 373,151.5 370.8,161.6 C351.2,156.8 329.8,153.1 307.3,150.7 C293.8,132.2 279.8,115.4 265.7,100.7 C298.3,70.4 328.9,53.8 349.7,53.8 L349.7,31.5 C322.2,31.5 286.2,51.1 249.8,85.1 C213.4,51.3 177.4,31.9 149.9,31.9 L149.9,54.2 C170.6,54.2 201.3,70.7 233.9,100.8 C219.9,115.5 205.9,132.2 192.6,150.7 C170,153.1 148.6,156.8 129,161.7 C126.7,151.7 125,142 123.8,132.7 C119.1,94.5 124.9,64.8 138.4,56.9 C141.4,55.1 145.3,54.3 149.9,54.3 L149.9,32 C141.5,32 133.9,33.8 127.3,37.6 C99.2,53.8 92.9,104.3 107.4,167.7 C45.2,186.9 4.7,217.6 4.7,250 C4.7,282.5 45.4,313.3 107.8,332.4 C93.4,396 99.8,446.6 128,462.8 C134.5,466.6 142.1,468.4 150.5,468.4 C178,468.4 214,448.8 250.4,414.8 C286.8,448.6 322.8,468 350.3,468 C358.7,468 366.3,466.2 372.9,462.4 C401,446.2 407.3,395.7 392.8,332.3 C454.8,313.2 495.3,282.4 495.3,250 Z M365.1,183.3 C361.4,196.2 356.8,209.5 351.6,222.8 C347.5,214.8 343.2,206.8 338.5,198.8 C333.9,190.8 329,183 324.1,175.4 C338.3,177.5 352,180.1 365.1,183.3 Z M319.3,289.8 C311.5,303.3 303.5,316.1 295.2,328 C280.3,329.3 265.2,330 250,330 C234.9,330 219.8,329.3 205,328.1 C196.7,316.2 188.6,303.5 180.8,290.1 C173.2,277 166.3,263.7 160,250.3 C166.2,236.9 173.2,223.5 180.7,210.4 C188.5,196.9 196.5,184.1 204.8,172.2 C219.7,170.9 234.8,170.2 250,170.2 C265.1,170.2 280.2,170.9 295,172.1 C303.3,184 311.4,196.7 319.2,210.1 C326.8,223.2 333.7,236.5 340,249.9 C333.7,263.3 326.8,276.7 319.3,289.8 Z M351.6,276.8 C357,290.2 361.6,303.6 365.4,316.6 C352.3,319.8 338.5,322.5 324.2,324.6 C329.1,316.9 334,309 338.6,300.9 C343.2,292.9 347.5,284.8 351.6,276.8 Z M250.2,383.5 C240.9,373.9 231.6,363.2 222.4,351.5 C231.4,351.9 240.6,352.2 249.9,352.2 C259.3,352.2 268.6,352 277.7,351.5 C268.7,363.2 259.4,373.9 250.2,383.5 Z M175.8,324.6 C161.6,322.5 147.9,319.9 134.8,316.7 C138.5,303.8 143.1,290.5 148.3,277.2 C152.4,285.2 156.7,293.2 161.4,301.2 C166.1,309.2 170.9,317 175.8,324.6 Z M249.7,116.5 C259,126.1 268.3,136.8 277.5,148.5 C268.5,148.1 259.3,147.8 250,147.8 C240.6,147.8 231.3,148 222.2,148.5 C231.2,136.8 240.5,126.1 249.7,116.5 Z M175.7,175.4 C170.8,183.1 165.9,191 161.3,199.1 C156.7,207.1 152.4,215.1 148.3,223.1 C142.9,209.7 138.3,196.3 134.5,183.3 C147.6,180.2 161.4,177.5 175.7,175.4 Z M85.2,300.6 C49.8,285.5 26.9,265.7 26.9,250 C26.9,234.3 49.8,214.4 85.2,199.4 C93.8,195.7 103.2,192.4 112.9,189.3 C118.6,208.9 126.1,229.3 135.4,250.2 C126.2,271 118.8,291.3 113.2,310.8 C103.3,307.7 93.9,304.3 85.2,300.6 Z M139,443.5 C125.4,435.7 119.5,406 124.1,367.8 C125.2,358.4 127,348.5 129.2,338.4 C148.8,343.2 170.2,346.9 192.7,349.3 C206.2,367.8 220.2,384.6 234.3,399.3 C201.7,429.6 171.1,446.2 150.3,446.2 C145.8,446.1 142,445.2 139,443.5 Z M376.2,367.3 C380.9,405.5 375.1,435.2 361.6,443.1 C358.6,444.9 354.7,445.7 350.1,445.7 C329.4,445.7 298.7,429.2 266.1,399.1 C280.1,384.4 294.1,367.7 307.4,349.2 C330,346.8 351.4,343.1 371,338.2 C373.3,348.3 375.1,358 376.2,367.3 Z M414.7,300.6 C406.1,304.3 396.7,307.6 387,310.7 C381.3,291.1 373.8,270.7 364.5,249.8 C373.7,229 381.1,208.7 386.7,189.2 C396.6,192.3 406,195.7 414.8,199.4 C450.2,214.5 473.1,234.3 473.1,250 C473,265.7 450.1,285.6 414.7,300.6 Z" id="Shape" fill="#61DAFB" fill-rule="nonzero"></path>
        <circle id="Oval" fill="#61DAFB" cx="249.9" cy="250" r="45.7"></circle>
    </g>
</svg>