<svg width="601" height="601" viewBox="0 0 601 601" fill="none" xmlns="http://www.w3.org/2000/svg">
<path d="M355 591C422.379 591 477 536.379 477 469C477 401.621 422.379 347 355 347C287.621 347 233 401.621 233 469C233 536.379 287.621 591 355 591Z" fill="white" stroke="white" stroke-width="20"/>
<path fill-rule="evenodd" clip-rule="evenodd" d="M347 122.208C415.568 119.353 477.943 146.017 522.463 190.537C564.809 232.883 591 291.383 591 356C591 420.617 564.809 479.117 522.463 521.463C477.943 565.983 415.568 592.647 347 589.792V122.208Z" fill="white" stroke="white" stroke-width="20"/>
<path fill-rule="evenodd" clip-rule="evenodd" d="M122.208 366C119.353 297.432 146.017 235.057 190.537 190.537C232.883 148.191 291.383 122 356 122C420.617 122 479.117 148.191 521.463 190.537C565.983 235.057 592.647 297.432 589.792 366L122.208 366Z" fill="white" stroke="white" stroke-width="20"/>
<path fill-rule="evenodd" clip-rule="evenodd" d="M366 10.1411C266.5 7.33538 176.132 46.55 111.341 111.341C46.55 176.132 7.33537 266.5 10.1411 366H366V10.1411Z" fill="white" stroke="white" stroke-width="20" stroke-linejoin="round"/>
<path d="M579.5 356C579.5 479.269 479.706 579.23 356.5 579.499V579.124V578.68V578.232V577.781V577.326V576.867V576.404V575.937V575.467V574.993V574.516V574.034V573.549V573.061V572.569V572.073V571.573V571.07V570.563V570.053V569.539V569.021V568.5V567.976V567.448V566.916V566.381V565.842V565.3V564.755V564.206V563.653V563.097V562.538V561.975V561.409V560.84V560.267V559.691V559.111V558.528V557.942V557.353V556.76V556.164V555.565V554.962V554.356V553.747V553.135V552.52V551.901V551.279V550.654V550.026V549.395V548.76V548.123V547.482V546.838V546.192V545.542V544.889V544.233V543.574V542.912V542.247V541.579V540.908V540.234V539.557V538.877V538.194V537.508V536.82V536.128V535.434V534.737V534.036V533.333V532.628V531.919V531.208V530.493V529.776V529.056V528.334V527.609V526.881V526.15V525.416V524.68V523.941V523.2V522.456V521.709V520.959V520.207V519.453V518.695V517.935V517.173V516.408V515.64V514.87V514.098V513.323V512.545V511.765V510.982V510.197V509.41V508.62V507.828V507.033V506.236V505.436V504.634V503.83V503.023V502.214V501.403V500.589V499.774V498.955V498.135V497.312V496.487V495.66V494.831V493.999V493.165V492.329V491.491V490.65V489.808V488.963V488.116V487.267V486.416V485.563V484.708V483.851V482.992V482.13V481.267V480.402V479.534V478.665V477.794V476.92V476.045V475.168V474.289V473.408V472.525V471.64V470.753V469.864V468.974V468.082V467.188V466.292V465.394V464.494V463.593V462.69V461.785V460.879V459.97V459.06V458.149V457.235V456.32V455.403V454.485V453.565V452.643V451.72V450.795V449.869V448.94V448.011V447.08V446.147V445.213V444.277V443.339V442.401V441.46V440.519V439.575V438.631V437.685V436.737V435.788V434.838V433.886V432.933V431.979V431.023V430.066V429.107V428.148V427.187V426.224V425.261V424.296V423.33V422.363V421.394V420.424V419.453V418.481V417.508V416.533V415.558V414.581V413.603V412.624V411.644V410.663V409.681V408.697V407.713V406.728V405.741V404.754V403.765V402.776V401.786V400.794V399.802V398.809V397.815V396.82V395.824V394.827V393.829V392.831V391.831V390.831V389.83V388.828V387.825V386.822V385.817V384.812V383.807V382.8V381.793V380.785V379.776V378.767V377.757V376.746V375.735V374.723V373.71V372.697V371.683V370.669V369.654V368.638V367.622V366.605V365.588V364.571V363.552V362.534V361.515V360.495V359.475V358.454V357.433V356.412V355.39V354.368V353.346V352.323V351.299V350.276V349.252V348.228V347.203V346.178V345.153V344.128V343.102V342.076V341.05V340.024V338.997V337.97V336.943V335.916V334.889V333.862V332.834V331.807V330.779V329.751V328.723V327.695V326.667V325.639V324.611V323.583V322.555V321.526V320.498V319.47V318.442V317.414V316.386V315.358V314.331V313.303V312.275V311.248V310.221V309.194V308.167V307.14V306.113V305.087V304.061V303.035V302.009V300.984V299.959V298.934V297.909V296.885V295.861V294.837V293.814V292.791V291.768V290.746V289.724V288.703V287.682V286.661V285.641V284.621V283.602V282.583V281.565V280.547V279.53V278.513V277.497V276.482V275.466V274.452V273.438V272.425V271.412V270.4V269.388V268.378V267.368V266.358V265.349V264.341V263.334V262.327V261.321V260.316V259.312V258.308V257.305V256.303V255.302V254.302V253.302V252.303V251.306V250.309V249.313V248.317V247.323V246.33V245.337V244.346V243.355V242.366V241.377V240.39V239.403V238.417V237.433V236.45V235.467V234.486V233.506V232.526V231.548V230.571V229.596V228.621V227.647V226.675V225.704V224.734V223.765V222.798V221.832V220.867V219.903V218.94V217.979V217.019V216.06V215.103V214.147V213.193V212.239V211.287V210.337V209.388V208.44V207.494V206.549V205.605V204.663V203.723V202.784V201.846V200.91V199.976V199.043V198.111V197.181V196.253V195.326V194.401V193.478V192.556V191.635V190.717V189.8V188.884V187.971V187.059V186.148V185.24V184.333V183.428V182.525V181.623V180.723V179.825V178.929V178.035V177.142V176.251V175.362V174.475V173.59V172.707V171.826V170.946V170.069V169.193V168.32V167.448V166.578V165.711V164.845V163.981V163.12V162.26V161.402V160.547V159.693V158.842V157.993V157.146V156.301V155.458V154.617V153.779V152.942V152.108V151.276V150.446V149.619V148.793V147.97V147.149V146.331V145.515V144.701V143.889V143.08V142.273V141.468V140.666V139.866V139.068V138.273V137.481V136.69V135.902V135.117V134.334V133.554V132.776V132.501C479.706 132.77 579.5 232.731 579.5 356Z" fill="#00B3AC" fill-opacity="0.5" stroke="#00B3AC"/>
<path fill-rule="evenodd" clip-rule="evenodd" d="M244 468C244 529.856 294.144 580 356 580C417.856 580 468 529.856 468 468C401.93 468 281.061 468 244 468Z" fill="#00B3AC" fill-opacity="0.5"/>
<path d="M356 580C417.856 580 468 529.856 468 468C468 406.144 417.856 356 356 356C294.144 356 244 406.144 244 468C244 529.856 294.144 580 356 580Z" fill="#00B3AC" fill-opacity="0.5"/>
<path fill-rule="evenodd" clip-rule="evenodd" d="M356.002 524C325.074 524 300.002 498.928 300.002 468C300.002 437.072 325.074 412 356.002 412C356.002 445.035 356.002 505.47 356.002 524Z" fill="#00B3AC" fill-opacity="0.5"/>
<path fill-rule="evenodd" clip-rule="evenodd" d="M412 468C412 498.928 386.928 524 356 524C325.072 524 300 498.928 300 468C333.035 468 393.47 468 412 468Z" fill="#00B3AC" fill-opacity="0.5"/>
<path fill-rule="evenodd" clip-rule="evenodd" d="M356 468.002C371.464 468.002 384 455.466 384 440.002C384 424.538 371.464 412.002 356 412.002C356 428.519 356 458.737 356 468.002Z" fill="#00B3AC" fill-opacity="0.5"/>
<path fill-rule="evenodd" clip-rule="evenodd" d="M384 440.002C384 455.466 371.464 468.002 356 468.002C340.536 468.002 328 455.466 328 440.002C344.517 440.002 374.735 440.002 384 440.002Z" fill="#00B3AC" fill-opacity="0.5"/>
<path fill-rule="evenodd" clip-rule="evenodd" d="M356 356C356 216.48 356 104.48 356 20C170.432 20 20 170.432 20 356C106.405 356 218.405 356 356 356Z" fill="#00B3AC" fill-opacity="0.5"/>
<path fill-rule="evenodd" clip-rule="evenodd" d="M580 356C580 232.288 479.712 132 356 132C232.288 132 132 232.288 132 356C264.14 356 505.879 356 580 356Z" fill="#00B3AC" fill-opacity="0.5"/>
<path d="M153.7 328C184.628 328 209.7 302.928 209.7 272C209.7 241.072 184.628 216 153.7 216C122.772 216 97.7 241.072 97.7 272C97.7 302.928 122.772 328 153.7 328Z" fill="white"/>
<path d="M153.7 300C169.164 300 181.7 287.464 181.7 272C181.7 256.536 169.164 244 153.7 244C138.236 244 125.7 256.536 125.7 272C125.7 287.464 138.236 300 153.7 300Z" fill="#303942"/>
</svg>
